<svg width="26" height="26" viewBox="0 0 26 26" fill="none" xmlns="http://www.w3.org/2000/svg">
<path fill-rule="evenodd" clip-rule="evenodd" d="M18.2813 3.85937C18.2813 1.73128 20.0126 0 22.1406 0C24.2687 0 26 1.73128 26 3.85937C26 5.98746 24.2687 7.71875 22.1406 7.71875C20.0126 7.71875 18.2813 5.98746 18.2813 3.85937ZM21.5647 4.86103C21.5647 5.12332 21.8231 5.33675 22.1406 5.33675C22.4582 5.33675 22.7165 5.12337 22.7165 4.86103C22.7165 4.5987 22.4582 4.38531 22.1406 4.38531C21.2631 4.38531 20.5491 3.71632 20.5491 2.89397C20.5491 2.23803 21.0036 1.68005 21.6328 1.48093V1.06194C20.3064 1.30218 19.2969 2.46472 19.2969 3.85937C19.2969 5.25403 20.3064 6.41656 21.6328 6.65681V6.27407C21.0036 6.07496 20.5491 5.51697 20.5491 4.86103C20.5491 4.58057 20.7765 4.35322 21.0569 4.35322C21.3374 4.35322 21.5647 4.58057 21.5647 4.86103ZM22.6484 6.27407V6.65681C23.9749 6.41656 24.9844 5.25403 24.9844 3.85937C24.9844 2.46472 23.975 1.30218 22.6484 1.06194V1.48093C23.2777 1.68005 23.7322 2.23803 23.7322 2.89397C23.7322 3.17444 23.5048 3.40178 23.2244 3.40178C22.9439 3.40178 22.7165 3.17444 22.7165 2.89397C22.7165 2.63169 22.4582 2.41825 22.1406 2.41825C21.8231 2.41825 21.5647 2.63169 21.5647 2.89397C21.5647 3.15626 21.8231 3.36969 22.1406 3.36969C23.0182 3.36969 23.7322 4.03873 23.7322 4.86103C23.7322 5.51697 23.2777 6.07496 22.6484 6.27407ZM25.4921 24.9844H25.0859V10.1563C25.0859 9.87584 24.8585 9.64849 24.578 9.64849H20.5156C20.2351 9.64849 20.0077 9.87584 20.0077 10.1563V15.5899C20.0077 15.8703 20.2351 16.0977 20.5156 16.0977C20.796 16.0977 21.0234 15.8703 21.0234 15.5899V10.6641H24.0702V24.9844H21.0234V20.5657C21.0234 20.2852 20.796 20.0578 20.5156 20.0578C20.2351 20.0578 20.0077 20.2852 20.0077 20.5657V24.9844H18.789V13.5079C18.789 13.2274 18.5617 13 18.2812 13H14.2187C13.9382 13 13.7109 13.2274 13.7109 13.5079V24.9844H12.289V16.6563C12.289 16.3758 12.0617 16.1485 11.7812 16.1485H7.71872C7.43826 16.1485 7.21091 16.3758 7.21091 16.6563V24.9844H5.99217V19.9063C5.99217 19.6258 5.76482 19.3985 5.48436 19.3985H1.42187C1.14141 19.3985 0.914059 19.6258 0.914059 19.9063V24.9844H0.507811C0.227347 24.9844 0 25.2117 0 25.4922C0 25.7727 0.227347 26 0.507811 26H25.4921C25.7726 26 25.9999 25.7727 25.9999 25.4922C25.9999 25.2117 25.7726 24.9844 25.4921 24.9844ZM4.97655 24.9844H1.92968V20.4141H4.97655V24.9844ZM11.2734 24.9844H8.22653V17.1641H11.2734V24.9844ZM17.7734 24.9844H14.7265V14.0157H17.7734V24.9844ZM20.8746 17.612C20.7802 17.5175 20.6492 17.4637 20.5156 17.4637C20.382 17.4637 20.251 17.5175 20.1566 17.612C20.0621 17.7065 20.0078 17.8375 20.0078 17.9715C20.0078 18.1051 20.0621 18.2356 20.1566 18.3306C20.251 18.4251 20.382 18.4793 20.5156 18.4793C20.6492 18.4793 20.7802 18.425 20.8746 18.3306C20.9691 18.2356 21.0234 18.1051 21.0234 17.9715C21.0234 17.8375 20.9691 17.7065 20.8746 17.612ZM18.078 6.56942H16.0899C15.8094 6.56942 15.5821 6.79676 15.5821 7.07723C15.5821 7.35769 15.8094 7.58504 16.0899 7.58504H16.852L11.4225 13.0146L8.66401 10.2561C8.46571 10.0578 8.14417 10.0578 7.94582 10.2561L2.42316 15.7787C2.22486 15.977 2.22486 16.2985 2.42316 16.4968C2.52228 16.596 2.65228 16.6456 2.78223 16.6456C2.91218 16.6456 3.04218 16.596 3.14131 16.4969L8.30489 11.3333L11.0634 14.0918C11.2617 14.2901 11.5832 14.2901 11.7816 14.0918L17.5702 8.30319V9.06531C17.5702 9.34578 17.7975 9.57312 18.078 9.57312C18.3584 9.57312 18.5858 9.34578 18.5858 9.06531V7.07723C18.5858 6.79676 18.3584 6.56942 18.078 6.56942ZM1.46199 16.9504C1.59554 16.9504 1.72656 17.0047 1.82101 17.0992C1.91546 17.1936 1.9698 17.3246 1.9698 17.4582C1.9698 17.5917 1.91546 17.7227 1.82101 17.8172C1.72656 17.9117 1.59554 17.966 1.46199 17.966C1.32843 17.966 1.19742 17.9116 1.10296 17.8172C1.00851 17.7227 0.954174 17.5917 0.954174 17.4582C0.954174 17.3246 1.00851 17.1936 1.10296 17.0992C1.19742 17.0047 1.32843 16.9504 1.46199 16.9504Z" fill="#748AA1"/>
</svg>
