<svg width="28" height="28" viewBox="0 0 28 28" fill="none" xmlns="http://www.w3.org/2000/svg">
<path fill-rule="evenodd" clip-rule="evenodd" d="M26.3593 13.3959H20.8839L23.4736 10.8064C24.1132 10.1667 24.1132 9.12581 23.4736 8.48613L15.4671 0.479719C14.8274 -0.159963 13.7865 -0.15985 13.1469 0.479719L0.479678 13.1469C-0.159893 13.7866 -0.159893 14.8274 0.479678 15.4671L6.80452 21.7919V26.3592C6.80452 27.2639 7.5405 27.9999 8.4452 27.9999H11.3864C11.6884 27.9999 11.9333 27.755 11.9333 27.453C11.9333 27.151 11.6884 26.9061 11.3864 26.9061H8.4452C8.14365 26.9061 7.89832 26.6608 7.89832 26.3593V15.0366C7.89832 14.7351 8.14365 14.4897 8.4452 14.4897H26.3593C26.6608 14.4897 26.9061 14.7351 26.9061 15.0366V26.3593C26.9061 26.6608 26.6608 26.9061 26.3593 26.9061H16.2538C15.9518 26.9061 15.7069 27.151 15.7069 27.453C15.7069 27.755 15.9518 27.9999 16.2538 27.9999H26.3593C27.264 27.9999 28 27.2639 28 26.3592V15.0366C27.9999 14.132 27.264 13.3959 26.3593 13.3959ZM1.25313 14.6938C1.03995 14.4805 1.03995 14.1335 1.25318 13.9203L13.9204 1.25322C14.1336 1.03993 14.4806 1.04005 14.6937 1.25322L15.5229 2.08239L2.0823 15.5229L1.25313 14.6938ZM6.80452 20.245L4.63304 18.0736L6.80452 15.9021V20.245ZM16.0686 13.3959L17.3127 12.1518C17.5262 11.9383 17.5262 11.592 17.3127 11.3784C17.0991 11.1649 16.7529 11.1649 16.5392 11.3784L14.5218 13.3959H13.079L16.0474 10.4274C16.261 10.2139 16.261 9.86759 16.0474 9.65398C15.8338 9.44043 15.4876 9.44043 15.274 9.65398L11.532 13.3959H9.31079L15.3456 7.36094C15.5592 7.14738 15.5592 6.8011 15.3456 6.58755C15.132 6.37399 14.7858 6.37399 14.5722 6.58755L3.85965 17.3002L2.85574 16.2964L16.2963 2.85584L22.7001 9.25953C22.8033 9.36283 22.8602 9.5002 22.8602 9.64627C22.8602 9.79234 22.8033 9.92966 22.7 10.033L19.3369 13.396H16.0686V13.3959ZM14.0002 15.3145H10.0626C9.7606 15.3145 9.51571 15.5594 9.51571 15.8613V18.3747C9.51571 18.6767 9.7606 18.9216 10.0626 18.9216H14.0002C14.3022 18.9216 14.5471 18.6767 14.5471 18.3747V15.8613C14.5471 15.5594 14.3022 15.3145 14.0002 15.3145ZM13.4533 17.8279H10.6095V16.4082H13.4533V17.8279ZM10.0847 20.151H13.4326C13.7346 20.151 13.9795 20.3959 13.9795 20.6979C13.9795 20.9999 13.7346 21.2448 13.4326 21.2448H10.0847C9.7827 21.2448 9.53786 20.9999 9.53786 20.6979C9.53786 20.3959 9.78275 20.151 10.0847 20.151ZM15.698 20.151H19.0459C19.3479 20.151 19.5928 20.3959 19.5928 20.6979C19.5928 20.9999 19.3479 21.2448 19.0459 21.2448H15.698C15.396 21.2448 15.1512 20.9999 15.1512 20.6979C15.1512 20.3959 15.396 20.151 15.698 20.151ZM24.7369 20.151H21.389C21.087 20.151 20.8421 20.3959 20.8421 20.6979C20.8421 20.9999 21.087 21.2448 21.389 21.2448H24.7369C25.0388 21.2448 25.2837 20.9999 25.2837 20.6979C25.2837 20.3959 25.0388 20.151 24.7369 20.151ZM22.6673 22.2819C22.9631 22.1263 23.2994 22.0378 23.6562 22.0378C24.8323 22.0378 25.7891 22.9946 25.7891 24.1707C25.7891 25.3468 24.8323 26.3035 23.6562 26.3035C23.2994 26.3035 22.9631 26.215 22.6673 26.0595C22.3715 26.215 22.0351 26.3035 21.6783 26.3035C20.5022 26.3035 19.5454 25.3468 19.5454 24.1707C19.5454 22.9946 20.5022 22.0378 21.6783 22.0378C22.0351 22.0378 22.3714 22.1263 22.6673 22.2819ZM21.6782 25.2098C21.7164 25.2098 21.7539 25.2074 21.7909 25.2034C21.6208 24.8972 21.5234 24.5451 21.5234 24.1707C21.5234 23.7963 21.6208 23.4443 21.7909 23.1381C21.7539 23.134 21.7164 23.1317 21.6782 23.1317C21.1053 23.1317 20.6392 23.5978 20.6392 24.1707C20.6392 24.7437 21.1053 25.2098 21.6782 25.2098ZM22.6172 24.1707C22.6172 24.2815 22.635 24.3881 22.6673 24.4882C22.6995 24.3881 22.7174 24.2815 22.7174 24.1707C22.7174 24.0599 22.6996 23.9533 22.6673 23.8531C22.635 23.9533 22.6172 24.0599 22.6172 24.1707ZM23.5436 25.2034C23.5807 25.2074 23.6182 25.2098 23.6563 25.2098C24.2292 25.2098 24.6954 24.7437 24.6953 24.1707C24.6953 23.5978 24.2292 23.1317 23.6563 23.1317C23.6332 23.1317 23.6104 23.1325 23.5877 23.1341C23.5729 23.1352 23.5582 23.1365 23.5436 23.1381C23.7138 23.4443 23.8111 23.7963 23.8111 24.1707C23.8111 24.5452 23.7138 24.8972 23.5436 25.2034ZM14.0514 26.9062H14.0586C14.3606 26.9062 14.6055 27.1511 14.6055 27.4531C14.6055 27.7551 14.3606 28 14.0586 28H14.0514C13.7494 28 13.5045 27.7551 13.5045 27.4531C13.5045 27.1511 13.7494 26.9062 14.0514 26.9062ZM16.4136 4.97257C16.558 4.97257 16.699 5.03108 16.8008 5.1328C16.9025 5.23452 16.961 5.37562 16.961 5.51944C16.961 5.66327 16.9025 5.80437 16.8008 5.90608C16.699 6.0078 16.558 6.06632 16.4136 6.06632C16.2697 6.06632 16.1286 6.0078 16.0275 5.90608C15.9252 5.80437 15.8672 5.66327 15.8672 5.51944C15.8672 5.37562 15.9252 5.23452 16.0275 5.1328C16.1286 5.03108 16.2697 4.97262 16.4136 4.97257Z" fill="#ffffff"/>
</svg>
