<svg width="26" height="26" viewBox="0 0 26 26" fill="none" xmlns="http://www.w3.org/2000/svg">
<path fill-rule="evenodd" clip-rule="evenodd" d="M21.8565 2.23438H25.4922C25.7727 2.23438 26 2.46177 26 2.74219V22.7563C26 24.5449 24.5449 26 22.7563 26H3.24365C1.45508 26 0 24.5449 0 22.7563C0 22.4759 0.227347 22.2485 0.507812 22.2485H1.71758V2.74219C1.71758 2.46177 1.94492 2.23438 2.22539 2.23438H5.31253C5.55146 0.964227 6.66829 0 8.00683 0C9.34538 0 10.4622 0.964227 10.7011 2.23438H16.4679C16.7068 0.964227 17.8236 0 19.1622 0C20.5007 0 21.6175 0.964227 21.8565 2.23438ZM1.07397 23.2642C1.30442 24.2489 2.18974 24.9844 3.24365 24.9844H20.401C19.9609 24.5194 19.6566 23.9246 19.5524 23.2642H1.07397ZM22.7563 24.9844C23.9849 24.9844 24.9844 23.9848 24.9844 22.7563V3.25H19.1622C18.8817 3.25 18.6544 3.02261 18.6544 2.74219C18.6544 2.46177 18.8817 2.23438 19.1622 2.23438H20.8124C20.5951 1.52939 19.9376 1.01562 19.1622 1.01562C18.2102 1.01562 17.4356 1.79015 17.4356 2.74219C17.4356 3.69423 18.2102 4.46875 19.1622 4.46875C19.4427 4.46875 19.67 4.69614 19.67 4.97656C19.67 5.25698 19.4427 5.48438 19.1622 5.48438C17.8237 5.48438 16.7068 4.52015 16.4679 3.25H8.00688C7.72642 3.25 7.49907 3.02261 7.49907 2.74219C7.49907 2.46177 7.72642 2.23438 8.00688 2.23438H9.65712C9.43978 1.52939 8.78226 1.01562 8.00688 1.01562C7.05484 1.01562 6.28032 1.79015 6.28032 2.74219C6.28032 3.69423 7.05484 4.46875 8.00688 4.46875C8.28734 4.46875 8.5147 4.69614 8.5147 4.97656C8.5147 5.25698 8.28734 5.48438 8.00688 5.48438C6.66834 5.48438 5.55151 4.52015 5.31258 3.25H2.7332V6.44922H21.0403C21.3208 6.44922 21.5482 6.67661 21.5482 6.95703C21.5482 7.23745 21.3208 7.46484 21.0403 7.46484H2.7332V19.8047H6.25412C6.53458 19.8047 6.76193 20.0321 6.76193 20.3125C6.76193 20.5929 6.53458 20.8203 6.25412 20.8203H2.7332V22.2485H20.0205C20.301 22.2485 20.5283 22.4759 20.5283 22.7563C20.5283 23.9848 21.5278 24.9844 22.7563 24.9844ZM8.27734 19.8047C8.4109 19.8047 8.54191 19.859 8.63637 19.9535C8.73082 20.0479 8.78516 20.1789 8.78516 20.3125C8.78516 20.4461 8.73082 20.5771 8.63637 20.6715C8.54191 20.766 8.4109 20.8203 8.27734 20.8203C8.14379 20.8203 8.01278 20.7659 7.91832 20.6715C7.82387 20.5771 7.76953 20.4461 7.76953 20.3125C7.76953 20.1784 7.82387 20.0479 7.91832 19.9535C8.01278 19.859 8.14379 19.8047 8.27734 19.8047ZM23.7813 6.59801C23.6869 6.50355 23.5559 6.44922 23.4223 6.44922C23.2888 6.44922 23.1577 6.5035 23.0633 6.59801C22.9688 6.6925 22.9145 6.82347 22.9145 6.95703C22.9145 7.0906 22.9688 7.2216 23.0633 7.316C23.1577 7.41051 23.2888 7.46484 23.4223 7.46484C23.5559 7.46484 23.6869 7.41051 23.7813 7.316C23.8758 7.2216 23.9301 7.0906 23.9301 6.95703C23.9301 6.82347 23.8758 6.69246 23.7813 6.59801ZM15.6019 10.6798C15.7384 10.4349 16.0477 10.3471 16.2927 10.4837C16.5377 10.6204 16.6255 10.9297 16.4889 11.1746L12.1092 19.0271C12.0163 19.1937 11.8434 19.2877 11.6652 19.2877C11.5815 19.2877 11.4966 19.2669 11.4183 19.2232C11.1734 19.0866 11.0856 18.7773 11.2222 18.5324L15.6019 10.6798ZM16.4808 15.6605C15.4808 15.6605 14.6672 16.4741 14.6672 17.4741C14.6672 18.4741 15.4808 19.2876 16.4808 19.2876C17.4808 19.2876 18.2943 18.4741 18.2943 17.4741C18.2943 16.4741 17.4808 15.6605 16.4808 15.6605ZM16.4808 18.272C16.0408 18.272 15.6828 17.914 15.6828 17.474C15.6828 17.0341 16.0408 16.6761 16.4808 16.6761C16.9207 16.6761 17.2787 17.0341 17.2787 17.474C17.2787 17.914 16.9207 18.272 16.4808 18.272ZM9.42328 12.233C9.42328 11.233 10.2368 10.4194 11.2368 10.4194C12.2368 10.4194 13.0504 11.233 13.0504 12.233C13.0504 13.233 12.2368 14.0465 11.2368 14.0465C10.2368 14.0465 9.42328 13.233 9.42328 12.233ZM10.4389 12.233C10.4389 12.673 10.7969 13.0309 11.2368 13.0309C11.6768 13.0309 12.0348 12.673 12.0348 12.233C12.0348 11.793 11.6768 11.4351 11.2368 11.4351C10.7969 11.4351 10.4389 11.793 10.4389 12.233Z" fill="#748AA1"/>
</svg>
