<svg width="27" height="27" viewBox="0 0 27 27" fill="none" xmlns="http://www.w3.org/2000/svg">
<path fill-rule="evenodd" clip-rule="evenodd" d="M20.1954 8.75097C20.2869 8.88624 20.3656 9.03207 20.4297 9.18681C24.2141 10.2495 27 13.7659 27 17.9289C27 22.9307 22.9784 27 18.0352 27C15.4544 27 13.1254 25.8904 11.4882 24.1185H5.27343C3.93588 24.1185 2.84765 23.0174 2.84765 21.664C2.84765 20.8867 3.20698 20.1931 3.76602 19.743C3.20698 19.293 2.84765 18.5994 2.84765 17.8221C2.84765 17.0448 3.20698 16.3512 3.76602 15.9012C3.20698 15.4511 2.84765 14.7575 2.84765 13.9802C2.84765 13.2029 3.20698 12.5093 3.76602 12.0593C3.20698 11.6092 2.84765 10.9156 2.84765 10.1383C2.84765 8.78491 3.93588 7.68378 5.27343 7.68378H6.64874C6.38022 7.28881 6.22264 6.81098 6.22264 6.29643C6.22264 5.78188 6.38027 5.30405 6.64874 4.90908H2.42578C1.08822 4.90908 0 3.80795 0 2.45454C0 1.10113 1.08822 0 2.42578 0H15.3457C16.6832 0 17.7715 1.10113 17.7715 2.45454C17.7715 2.96909 17.6138 3.44692 17.3454 3.84189H21.5683C22.9059 3.84189 23.9941 4.94302 23.9941 6.29643C23.9941 7.64984 22.9059 8.75097 21.5683 8.75097H20.1954ZM22.9394 6.29643C22.9394 5.53147 22.3244 4.90908 21.5683 4.90908H8.64842C7.89237 4.90908 7.27733 5.53147 7.27733 6.29643C7.27733 7.06139 7.89237 7.68378 8.64842 7.68378H18.1933H21.5683C22.3244 7.68378 22.9394 7.06139 22.9394 6.29643ZM1.05469 2.45454C1.05469 3.2195 1.66973 3.84189 2.42578 3.84189H15.3457C16.1017 3.84189 16.7168 3.2195 16.7168 2.45454C16.7168 1.68958 16.1017 1.06719 15.3457 1.06719H2.42578C1.66973 1.06719 1.05469 1.68958 1.05469 2.45454ZM18.1933 8.75097H5.27343C4.51743 8.75097 3.90234 9.37336 3.90234 10.1383C3.90234 10.9033 4.51743 11.5257 5.27343 11.5257H11.6913C13.3152 9.87846 15.5596 8.85774 18.0352 8.85774C18.29 8.85774 18.5422 8.86916 18.7916 8.89035C18.6091 8.80092 18.4057 8.75097 18.1933 8.75097ZM10.7902 12.5929H5.27343C4.51738 12.5929 3.90234 13.2152 3.90234 13.9802C3.90234 14.7452 4.51738 15.3676 5.27343 15.3676H9.4348C9.72874 14.3588 10.1916 13.4228 10.7902 12.5929ZM9.19264 16.4347H5.27343C4.51738 16.4347 3.90234 17.0571 3.90234 17.8221C3.90234 18.5871 4.51738 19.2094 5.27343 19.2094H9.1601C9.10141 18.7909 9.07035 18.3635 9.07035 17.9289C9.07035 17.42 9.11264 16.921 9.19264 16.4347ZM3.90234 21.664C3.90234 22.429 4.51738 23.0513 5.27343 23.0513H10.6407C10.0738 22.216 9.64151 21.2805 9.37542 20.2766H5.27343C4.51738 20.2766 3.90234 20.899 3.90234 21.664ZM10.125 17.9289C10.125 22.3422 13.6735 25.9328 18.0352 25.9328C22.3968 25.9328 25.9453 22.3422 25.9453 17.9289C25.9453 13.5155 22.3968 9.92494 18.0352 9.92494C13.6735 9.92494 10.125 13.5155 10.125 17.9289ZM18.8617 10.9922L18.8262 10.9922C18.535 10.9922 18.2988 11.231 18.2988 11.5257C18.2988 11.8205 18.535 12.0593 18.8262 12.0593L18.8567 12.0594H18.8592C19.1493 12.0594 19.3852 11.8222 19.3865 11.5283C19.3878 11.2336 19.1529 10.9936 18.8617 10.9922ZM21.002 11.6738C22.1492 12.2318 23.1198 13.1009 23.8086 14.1871C24.5165 15.3031 24.8906 16.5971 24.8906 17.9289C24.8906 19.0629 24.6141 20.1882 24.0909 21.1831C23.9961 21.3634 23.8136 21.4661 23.6249 21.4661C23.5414 21.4661 23.4566 21.446 23.3777 21.4035C23.1206 21.2651 23.023 20.9419 23.1598 20.6818C23.6021 19.8406 23.8359 18.8887 23.8359 17.9289C23.8359 15.6858 22.5442 13.608 20.545 12.6356C20.2825 12.5079 20.172 12.1891 20.2982 11.9235C20.4244 11.6579 20.7394 11.546 21.002 11.6738ZM16.8726 16.345C16.8726 16.9052 17.393 17.361 18.0328 17.361C19.254 17.361 20.2476 18.2955 20.2476 19.4443C20.2476 20.4221 19.5276 21.2443 18.5601 21.4674V21.6979C18.5601 21.9926 18.324 22.2315 18.0328 22.2315C17.7416 22.2315 17.5054 21.9926 17.5054 21.6979V21.4674C16.5379 21.2443 15.8179 20.4221 15.8179 19.4443C15.8179 19.1496 16.0541 18.9107 16.3453 18.9107C16.6365 18.9107 16.8726 19.1496 16.8726 19.4443C16.8726 20.0045 17.393 20.4603 18.0328 20.4603C18.6725 20.4603 19.1929 20.0045 19.1929 19.4443C19.1929 18.884 18.6725 18.4282 18.0328 18.4282C16.8115 18.4282 15.8179 17.4937 15.8179 16.345C15.8179 15.3672 16.5379 14.545 17.5054 14.3219V14.0443C17.5054 13.7497 17.7416 13.5107 18.0328 13.5107C18.324 13.5107 18.5601 13.7497 18.5601 14.0443V14.3219C19.5276 14.545 20.2476 15.3672 20.2476 16.345C20.2476 16.6396 20.0115 16.8786 19.7203 16.8786C19.4291 16.8786 19.1929 16.6396 19.1929 16.345C19.1929 15.7847 18.6725 15.3289 18.0328 15.3289C17.393 15.3289 16.8726 15.7847 16.8726 16.345ZM12.2345 17.9289C12.2345 20.172 13.5262 22.2498 15.5254 23.2222C15.7879 23.3499 15.8983 23.6688 15.7722 23.9344C15.6814 24.1254 15.493 24.2369 15.2966 24.2369C15.2199 24.2369 15.1421 24.22 15.0684 24.1841C13.9212 23.626 12.9507 22.7569 12.2618 21.6708C11.554 20.5546 11.1798 19.2608 11.1798 17.9289C11.1798 16.7949 11.4564 15.6697 11.9795 14.6748C12.1163 14.4146 12.4357 14.3159 12.6928 14.4543C12.9499 14.5928 13.0474 14.9159 12.9106 15.176C12.4683 16.0172 12.2345 16.9691 12.2345 17.9289ZM17.2443 23.7985L17.2138 23.7984C16.9212 23.7978 16.6854 24.0347 16.684 24.3295C16.6827 24.6242 16.9178 24.8642 17.209 24.8656L17.2443 24.8657C17.5355 24.8657 17.7716 24.6267 17.7716 24.3321C17.7716 24.0374 17.5355 23.7985 17.2443 23.7985Z" fill="#ffffff"/>
</svg>
