<svg width="21" height="20" viewBox="0 0 21 20" fill="none" xmlns="http://www.w3.org/2000/svg">
<path fill-rule="evenodd" clip-rule="evenodd" d="M16.3775 7.08329H8.6069C9.19196 6.34163 9.54629 5.39996 9.54629 4.37496C9.54629 3.34996 9.19196 2.41246 8.6069 1.66663H16.3775C17.8525 1.66663 19.0556 2.88329 19.0556 4.37496C19.0556 5.87079 17.8525 7.08329 16.3775 7.08329ZM5.23664 7.06668C3.86051 7.06668 2.72336 6.00418 2.58739 4.65002C2.57915 4.55835 2.57503 4.46668 2.57503 4.37502C2.57503 4.28335 2.57915 4.19168 2.58739 4.10002C2.72336 2.74585 3.86051 1.68335 5.23664 1.68335C6.70341 1.68335 7.89825 2.89168 7.89825 4.37502C7.89825 5.85835 6.70341 7.06668 5.23664 7.06668ZM16.3775 0H5.25312C2.86344 0 0.926971 1.95833 0.926971 4.375C0.926971 6.79167 2.86344 8.75 5.25312 8.75H16.3775C18.7672 8.75 20.7036 6.79167 20.7036 4.375C20.7036 1.95833 18.7672 0 16.3775 0Z" fill="#B8C5D3"/>
<path fill-rule="evenodd" clip-rule="evenodd" d="M2.57503 15.625C2.57503 14.1333 3.77399 12.9166 5.25312 12.9166H13.0196C12.4345 13.6625 12.0843 14.6 12.0843 15.625C12.0843 16.65 12.4345 17.5916 13.0196 18.3333H5.25312C3.77399 18.3333 2.57503 17.1208 2.57503 15.625ZM13.7323 15.625C13.7323 14.1417 14.9272 12.9333 16.394 12.9333C17.7701 12.9333 18.9031 13.9958 19.0391 15.35C19.0514 15.4417 19.0556 15.5333 19.0556 15.625C19.0556 15.7167 19.0514 15.8083 19.0391 15.9C18.9031 17.2542 17.7701 18.3167 16.394 18.3167C14.9272 18.3167 13.7323 17.1083 13.7323 15.625ZM0.926971 15.625C0.926971 18.0417 2.86344 20 5.25312 20H16.3775C18.7672 20 20.7036 18.0417 20.7036 15.625C20.7036 13.2083 18.7672 11.25 16.3775 11.25H5.25312C2.86344 11.25 0.926971 13.2083 0.926971 15.625Z" fill="#B8C5D3"/>
</svg>
